{
	"asset":{
		"generator":"Khronos glTF Blender I/O v5.0.21",
		"version":"2.0"
	},
	"scene":0,
	"scenes":[
		{
			"name":"Scene",
			"nodes":[
				0,
				1,
				2,
				3,
				4,
				5,
				6,
				7,
				8
			]
		}
	],
	"nodes":[
		{
			"mesh":0,
			"name":"torso"
		},
		{
			"name":"Empty-noimp",
			"rotation":[
				0.6919985413551331,
				-0.14538943767547607,
				0.14538945257663727,
				0.6919985413551331
			],
			"translation":[
				3.20330810546875,
				1.2163746356964111,
				-4.245095729827881
			]
		},
		{
			"name":"Empty.001-noimp",
			"rotation":[
				0.7071068286895752,
				0,
				0,
				0.7071068286895752
			],
			"scale":[
				0.5218566060066223,
				0.5218566060066223,
				0.5218566060066223
			],
			"translation":[
				-0.3583318293094635,
				1.177254557609558,
				-6.639310836791992
			]
		},
		{
			"mesh":1,
			"name":"head"
		},
		{
			"mesh":2,
			"name":"arms"
		},
		{
			"mesh":3,
			"name":"belt and cloth"
		},
		{
			"mesh":4,
			"name":"legs"
		},
		{
			"name":"Empty.002-noimp",
			"rotation":[
				0.684327244758606,
				0.17803438007831573,
				-0.17803439497947693,
				0.6843271851539612
			],
			"translation":[
				-6.376002311706543,
				2.700000047683716,
				-5.220787048339844
			]
		},
		{
			"name":"Empty.003-noimp",
			"rotation":[
				0.684327244758606,
				0.17803438007831573,
				-0.17803439497947693,
				0.6843271851539612
			],
			"translation":[
				-4.08866548538208,
				2.700000047683716,
				-6.497333526611328
			]
		}
	],
	"materials":[
		{
			"alphaMode":"BLEND",
			"doubleSided":true,
			"name":"Material",
			"normalTexture":{
				"index":0
			},
			"pbrMetallicRoughness":{
				"baseColorTexture":{
					"index":1
				},
				"metallicRoughnessTexture":{
					"index":2
				}
			}
		}
	],
	"meshes":[
		{
			"name":"Cube.001",
			"primitives":[
				{
					"attributes":{
						"POSITION":0,
						"NORMAL":1,
						"TEXCOORD_0":2
					},
					"indices":3,
					"material":0
				}
			]
		},
		{
			"name":"Mesh",
			"primitives":[
				{
					"attributes":{
						"POSITION":4,
						"NORMAL":5,
						"TEXCOORD_0":6
					},
					"indices":7,
					"material":0
				}
			]
		},
		{
			"name":"Cube.002",
			"primitives":[
				{
					"attributes":{
						"POSITION":8,
						"NORMAL":9,
						"TEXCOORD_0":10
					},
					"indices":11,
					"material":0
				}
			]
		},
		{
			"name":"Cube.004",
			"primitives":[
				{
					"attributes":{
						"POSITION":12,
						"NORMAL":13,
						"TEXCOORD_0":14
					},
					"indices":15,
					"material":0
				}
			]
		},
		{
			"name":"Cube.006",
			"primitives":[
				{
					"attributes":{
						"POSITION":16,
						"NORMAL":17,
						"TEXCOORD_0":18
					},
					"indices":19,
					"material":0
				}
			]
		}
	],
	"textures":[
		{
			"sampler":0,
			"source":0
		},
		{
			"sampler":0,
			"source":1
		},
		{
			"sampler":0,
			"source":2
		}
	],
	"images":[
		{
			"mimeType":"image/png",
			"name":"normal0001",
			"uri":"textures/normal0001.png"
		},
		{
			"mimeType":"image/png",
			"name":"albedo0001",
			"uri":"textures/albedo0001.png"
		},
		{
			"mimeType":"image/png",
			"name":"metallic0001-roughness0001",
			"uri":"textures/metallic0001-roughness0001.png"
		}
	],
	"accessors":[
		{
			"bufferView":0,
			"componentType":5126,
			"count":78,
			"max":[
				0.1977965384721756,
				1.9363641738891602,
				0.14875085651874542
			],
			"min":[
				-0.1977965384721756,
				1.3209573030471802,
				-0.14457109570503235
			],
			"type":"VEC3"
		},
		{
			"bufferView":1,
			"componentType":5126,
			"count":78,
			"type":"VEC3"
		},
		{
			"bufferView":2,
			"componentType":5126,
			"count":78,
			"type":"VEC2"
		},
		{
			"bufferView":3,
			"componentType":5123,
			"count":240,
			"type":"SCALAR"
		},
		{
			"bufferView":4,
			"componentType":5126,
			"count":113,
			"max":[
				0.12310159206390381,
				2.1839139461517334,
				0.10396727919578552
			],
			"min":[
				-0.12310159206390381,
				2.0201165676116943,
				-0.11931471526622772
			],
			"type":"VEC3"
		},
		{
			"bufferView":5,
			"componentType":5126,
			"count":113,
			"type":"VEC3"
		},
		{
			"bufferView":6,
			"componentType":5126,
			"count":113,
			"type":"VEC2"
		},
		{
			"bufferView":7,
			"componentType":5123,
			"count":384,
			"type":"SCALAR"
		},
		{
			"bufferView":8,
			"componentType":5126,
			"count":114,
			"max":[
				0.7452796697616577,
				2.031191349029541,
				0.1624956727027893
			],
			"min":[
				-0.7452796697616577,
				1.7431176900863647,
				-0.18167948722839355
			],
			"type":"VEC3"
		},
		{
			"bufferView":9,
			"componentType":5126,
			"count":114,
			"type":"VEC3"
		},
		{
			"bufferView":10,
			"componentType":5126,
			"count":114,
			"type":"VEC2"
		},
		{
			"bufferView":11,
			"componentType":5123,
			"count":348,
			"type":"SCALAR"
		},
		{
			"bufferView":12,
			"componentType":5126,
			"count":36,
			"max":[
				0.22598138451576233,
				1.5241326093673706,
				0.16696852445602417
			],
			"min":[
				-0.22598138451576233,
				0.6881991624832153,
				-0.13491913676261902
			],
			"type":"VEC3"
		},
		{
			"bufferView":13,
			"componentType":5126,
			"count":36,
			"type":"VEC3"
		},
		{
			"bufferView":14,
			"componentType":5126,
			"count":36,
			"type":"VEC2"
		},
		{
			"bufferView":15,
			"componentType":5123,
			"count":84,
			"type":"SCALAR"
		},
		{
			"bufferView":16,
			"componentType":5126,
			"count":50,
			"max":[
				0.18775177001953125,
				1.36464524269104,
				0.09349271655082703
			],
			"min":[
				-0.18775177001953125,
				0.45493969321250916,
				-0.08707186579704285
			],
			"type":"VEC3"
		},
		{
			"bufferView":17,
			"componentType":5126,
			"count":50,
			"type":"VEC3"
		},
		{
			"bufferView":18,
			"componentType":5126,
			"count":50,
			"type":"VEC2"
		},
		{
			"bufferView":19,
			"componentType":5123,
			"count":96,
			"type":"SCALAR"
		}
	],
	"bufferViews":[
		{
			"buffer":0,
			"byteLength":936,
			"byteOffset":0,
			"target":34962
		},
		{
			"buffer":0,
			"byteLength":936,
			"byteOffset":936,
			"target":34962
		},
		{
			"buffer":0,
			"byteLength":624,
			"byteOffset":1872,
			"target":34962
		},
		{
			"buffer":0,
			"byteLength":480,
			"byteOffset":2496,
			"target":34963
		},
		{
			"buffer":0,
			"byteLength":1356,
			"byteOffset":2976,
			"target":34962
		},
		{
			"buffer":0,
			"byteLength":1356,
			"byteOffset":4332,
			"target":34962
		},
		{
			"buffer":0,
			"byteLength":904,
			"byteOffset":5688,
			"target":34962
		},
		{
			"buffer":0,
			"byteLength":768,
			"byteOffset":6592,
			"target":34963
		},
		{
			"buffer":0,
			"byteLength":1368,
			"byteOffset":7360,
			"target":34962
		},
		{
			"buffer":0,
			"byteLength":1368,
			"byteOffset":8728,
			"target":34962
		},
		{
			"buffer":0,
			"byteLength":912,
			"byteOffset":10096,
			"target":34962
		},
		{
			"buffer":0,
			"byteLength":696,
			"byteOffset":11008,
			"target":34963
		},
		{
			"buffer":0,
			"byteLength":432,
			"byteOffset":11704,
			"target":34962
		},
		{
			"buffer":0,
			"byteLength":432,
			"byteOffset":12136,
			"target":34962
		},
		{
			"buffer":0,
			"byteLength":288,
			"byteOffset":12568,
			"target":34962
		},
		{
			"buffer":0,
			"byteLength":168,
			"byteOffset":12856,
			"target":34963
		},
		{
			"buffer":0,
			"byteLength":600,
			"byteOffset":13024,
			"target":34962
		},
		{
			"buffer":0,
			"byteLength":600,
			"byteOffset":13624,
			"target":34962
		},
		{
			"buffer":0,
			"byteLength":400,
			"byteOffset":14224,
			"target":34962
		},
		{
			"buffer":0,
			"byteLength":192,
			"byteOffset":14624,
			"target":34963
		}
	],
	"samplers":[
		{
			"magFilter":9728,
			"minFilter":9984
		}
	],
	"buffers":[
		{
			"byteLength":14816,
			"uri":"mc.bin"
		}
	]
}
